# xmcd
#
# Track frame offsets:
#	150
#	16010
#	32425
#
# Disc length: 646 seconds
#
# Revision: 1
# Processed by: cddbd v1.5.2PL0 Copyright (c) Steve Scherf et al.
# Submitted via: audiograbber 1.83.01
#
DISCID=11028403
DTITLE=Yoakam, Dwight - Fast as you
DYEAR=1993
DGENRE=Country
TTITLE0=Fast as you (Single edit)
TTITLE1=Home for sale
TTITLE2=Let's work together
EXTD=
EXTT0=
EXTT1=
EXTT2=
PLAYORDER=
